<?xml version="1.0" encoding="utf-8"?>
<!-- Generator: Adobe Illustrator 16.0.0, SVG Export Plug-In . SVG Version: 6.00 Build 0)  -->
<!DOCTYPE svg PUBLIC "-//W3C//DTD SVG 1.1//EN" "http://www.w3.org/Graphics/SVG/1.1/DTD/svg11.dtd">
<svg version="1.1" id="Capa_1" xmlns="http://www.w3.org/2000/svg" xmlns:xlink="http://www.w3.org/1999/xlink" x="0px" y="0px"
	 width="612px" height="792px" viewBox="0 0 612 792" enable-background="new 0 0 612 792" xml:space="preserve">
<g>
	<g>
		<path d="M425.723,579.6h-91.8V498c0-28.178-22.823-51-51-51h-61.2v-55.973l138.465-98.94c2.295-1.53,3.697-3.953,4.207-6.757
			c0.383-2.678-0.255-5.482-1.912-7.65l-30.6-40.8c-3.315-4.335-9.436-5.355-14.025-2.295l-104.55,72.292
			c18.487-34.808,5.228-78.03-29.58-96.518c-34.808-18.487-78.03-5.228-96.518,29.58c-14.917,28.05-9.435,62.475,13.26,84.533
			H89.123c-2.933,0-5.61,1.275-7.522,3.315l-65.917,73.185c-18.105,20.272-17.212,51,2.04,70.125l53.932,54.314
			c2.167,2.168,5.1,3.188,8.033,2.933c3.06-0.255,5.737-1.785,7.522-4.335l11.985-17.085V691.8c0,5.61,4.59,10.2,10.2,10.2h61.2
			c5.61,0,10.2-4.59,10.2-10.2V528.6h71.4v51h-30.6c-5.61,0-10.2,4.591-10.2,10.2v102c0,5.61,4.59,10.2,10.2,10.2h204
			c5.61,0,10.2-4.59,10.2-10.2v-102C435.923,584.19,431.332,579.6,425.723,579.6z M99.322,273.6c0-28.178,22.823-51,51-51
			c28.178,0,51,22.822,51,51c0,28.177-22.822,51-51,51C122.145,324.6,99.322,301.777,99.322,273.6z M174.547,345l-14.025,28.178
			L146.498,345H174.547z M99.322,454.268L83.002,436.8l16.32-16.319V454.268z M170.723,508.2c-5.61,0-10.2,4.59-10.2,10.2V681.6
			h-40.8V396c0-4.08-2.55-7.777-6.375-9.435c-3.825-1.657-8.16-0.765-11.093,2.167l-40.8,40.8c-3.825,3.953-3.825,10.328,0,14.28
			L94.86,478.62l-17.212,24.098L31.875,457.2c-11.603-11.476-12.112-30.218-1.147-42.33L93.712,345h29.835l27.795,55.59
			c2.55,4.973,8.67,7.013,13.77,4.463c1.913-1.021,3.443-2.55,4.463-4.463l29.452-58.905l122.4-84.788l18.487,24.607L205.53,377.513
			c-2.677,1.912-4.208,4.972-4.335,8.287v71.4c0,5.609,4.59,10.2,10.2,10.2h71.4c16.958,0,30.6,13.643,30.6,30.6v81.6h-40.799V518.4
			c0-5.61-4.59-10.2-10.2-10.2H170.723z M415.522,681.6h-183.6V600h183.6V681.6z"/>
	</g>
</g>
<g>
	<g>
		<path d="M599.122,171.6c-39.397,0-71.399-32.002-71.399-71.4c0-5.61-4.59-10.2-10.2-10.2s-10.2,4.59-10.2,10.2
			c0,39.397-32.002,71.4-71.399,71.4c-5.61,0-10.2,4.59-10.2,10.2c0,5.61,4.59,10.2,10.2,10.2c39.397,0,71.399,32.002,71.399,71.4
			c0,5.61,4.59,10.2,10.2,10.2s10.2-4.59,10.2-10.2c0-39.397,32.002-71.4,71.399-71.4c5.61,0,10.2-4.59,10.2-10.2
			C609.322,176.19,604.732,171.6,599.122,171.6z M517.522,221.325c-8.798-16.958-22.567-30.728-39.525-39.525
			c16.958-8.797,30.728-22.567,39.525-39.525c8.798,16.958,22.567,30.728,39.525,39.525
			C540.09,190.598,526.32,204.368,517.522,221.325z"/>
	</g>
</g>
<g>
	<g>
		
			<rect x="320.405" y="355.189" transform="matrix(-0.8064 0.5913 -0.5913 -0.8064 825.9445 460.4123)" fill="#FFFFFF" width="34.424" height="20.399"/>
	</g>
</g>
<g>
	<g>
		
			<rect x="362.458" y="290.593" transform="matrix(-0.8062 0.5916 -0.5916 -0.8062 946.8546 291.4498)" width="126.477" height="20.399"/>
	</g>
</g>
<g>
	<g>
		
			<rect x="368.476" y="222.607" transform="matrix(-0.832 0.5547 -0.5547 -0.832 871.5895 201.704)" width="73.564" height="20.399"/>
	</g>
</g>
</svg>
