<?xml version="1.0" encoding="utf-8"?>
<!-- Generator: Adobe Illustrator 16.0.0, SVG Export Plug-In . SVG Version: 6.00 Build 0)  -->
<!DOCTYPE svg PUBLIC "-//W3C//DTD SVG 1.1//EN" "http://www.w3.org/Graphics/SVG/1.1/DTD/svg11.dtd">
<svg version="1.1" id="Capa_1" xmlns="http://www.w3.org/2000/svg" xmlns:xlink="http://www.w3.org/1999/xlink" x="0px" y="0px"
	 width="612px" height="792px" viewBox="0 0 612 792" enable-background="new 0 0 612 792" xml:space="preserve">
<g>
	<g>
		<path d="M131.143,352.286c36.064,0,65.571-29.507,65.571-65.571c0-36.064-29.507-65.572-65.571-65.572
			c-36.064,0-65.572,29.507-65.572,65.572C65.571,322.778,95.079,352.286,131.143,352.286z M131.143,243
			c24.042,0,43.714,19.671,43.714,43.714s-19.671,43.714-43.714,43.714c-24.043,0-43.714-19.671-43.714-43.714
			S107.1,243,131.143,243z"/>
		<path d="M480.857,352.286c36.064,0,65.571-29.507,65.571-65.571c0-36.064-29.507-65.572-65.571-65.572
			s-65.571,29.507-65.571,65.572C415.286,322.778,444.793,352.286,480.857,352.286z M480.857,243
			c24.043,0,43.714,19.671,43.714,43.714s-19.671,43.714-43.714,43.714s-43.715-19.671-43.715-43.714S456.814,243,480.857,243z"/>
		<path d="M590.143,374.143v142.071c0,18.579-14.207,32.786-32.785,32.786V428.786c0-30.601-24.043-54.643-54.644-54.643h-54.643
			c-6.557,0-10.929,4.371-10.929,10.928v43.715v10.928v10.929h-87.429c-6.557,0-10.928,4.372-10.928,10.929v32.786h-65.572v-32.786
			c0-6.557-4.372-10.929-10.929-10.929h-87.429v-10.929v-10.928v-43.715c0-6.557-4.371-10.928-10.928-10.928h-54.643
			c-30.6,0-54.643,24.042-54.643,54.643V549c-18.579,0-32.786-14.207-32.786-32.786V374.143H0v142.071
			c0,21.857,13.114,41.529,32.786,50.271V702h21.857V570.857h10.928H76.5h87.429v120.214c0,6.558,4.371,10.929,10.928,10.929h32.786
			h10.928H229.5v-10.929V527.143v-10.929h32.786h87.428H382.5v10.929v163.929V702h10.929h10.929h32.785
			c6.558,0,10.929-4.371,10.929-10.929V570.857H535.5h10.929h10.929V702h21.856V566.485C598.886,557.743,612,539.164,612,516.214
			V374.143H590.143z M218.571,494.357h-21.857h-65.571v-65.571h-21.857v76.5c0,6.557,4.372,10.928,10.929,10.928h76.5
			c6.557,0,10.929,4.372,10.929,10.929v153h-21.857V559.929c0-6.558-4.372-10.929-10.929-10.929H76.5V428.786
			C76.5,410.207,90.707,396,109.286,396H153v32.786v10.928v21.857c0,6.558,4.372,10.929,10.929,10.929h87.428v21.857H218.571z
			 M437.143,549c-6.557,0-10.929,4.371-10.929,10.929v120.214h-21.856v-153c0-6.557,4.371-10.929,10.929-10.929h76.5
			c6.557,0,10.928-4.371,10.928-10.928v-76.5h-21.856v65.571h-65.571h-21.857h-32.786V472.5h87.429
			c6.558,0,10.929-4.371,10.929-10.929v-21.857v-10.928V396h43.714c18.579,0,32.786,14.207,32.786,32.786V549H437.143z"/>
		<path d="M207.643,199.286v32.786c0,4.372,3.278,8.743,7.65,9.836c1.093,0,2.186,1.093,3.278,1.093
			c3.279,0,6.557-1.093,8.743-4.372l29.507-39.343h81.965c18.578,0,32.785-14.207,32.785-32.786v-43.714
			c0-18.579-14.207-32.786-32.785-32.786H207.643c-18.579,0-32.786,14.207-32.786,32.786V166.5
			C174.857,185.079,189.064,199.286,207.643,199.286z M196.714,122.786c0-6.557,4.372-10.929,10.929-10.929h131.143
			c6.557,0,10.928,4.372,10.928,10.929V166.5c0,6.557-4.371,10.929-10.928,10.929h-87.429c-3.278,0-6.557,1.093-8.743,4.371
			L229.5,199.286v-10.928c0-6.558-4.372-10.929-10.929-10.929h-10.928c-6.557,0-10.929-4.372-10.929-10.929V122.786z"/>
		<rect x="218.571" y="133.714" width="109.286" height="21.857"/>
		<rect x="295.071" y="363.214" width="65.571" height="21.857"/>
		<path d="M284.143,319.5c-18.579,0-32.786,14.207-32.786,32.786V396c0,18.578,14.208,32.786,32.786,32.786h87.428
			c18.579,0,32.786-14.208,32.786-32.786v-7.65l19.671-29.507c2.186-3.278,2.186-7.65,0-10.929
			c-1.093-4.371-4.371-6.557-8.742-6.557h-13.114c-4.372-13.114-16.394-21.857-30.601-21.857H284.143z M382.5,352.286
			c0,6.557,4.371,10.929,10.929,10.929h1.093l-10.929,15.3c0,2.186-1.093,4.372-1.093,6.557V396c0,6.558-4.371,10.929-10.929,10.929
			h-87.428c-6.557,0-10.929-4.371-10.929-10.929v-43.714c0-6.557,4.372-10.929,10.929-10.929h87.428
			C378.129,341.357,382.5,345.729,382.5,352.286z"/>
		<rect x="251.357" y="264.857" width="21.857" height="21.857"/>
		<rect x="295.071" y="264.857" width="21.857" height="21.857"/>
		<rect x="338.786" y="264.857" width="21.856" height="21.857"/>
	</g>
</g>
</svg>
