<?xml version="1.0" encoding="utf-8"?>
<!-- Generator: Adobe Illustrator 16.0.0, SVG Export Plug-In . SVG Version: 6.00 Build 0)  -->
<!DOCTYPE svg PUBLIC "-//W3C//DTD SVG 1.1//EN" "http://www.w3.org/Graphics/SVG/1.1/DTD/svg11.dtd">
<svg version="1.1" id="Capa_1" xmlns="http://www.w3.org/2000/svg" xmlns:xlink="http://www.w3.org/1999/xlink" x="0px" y="0px"
	 width="612px" height="792px" viewBox="0 0 612 792" enable-background="new 0 0 612 792" xml:space="preserve">
<g>
	<g>
		<path d="M550.8,508.2c-23.843,0-44.37,16.575-49.598,39.652c-19.635-12.112-44.37-12.112-63.877,0
			c-6.12-27.412-33.405-44.625-60.817-38.505c-19.125,4.335-34.17,19.252-38.505,38.505c-19.636-12.112-44.371-12.112-63.878,0
			c-6.12-27.412-33.405-44.625-60.817-38.505c-19.125,4.335-34.17,19.252-38.505,38.505c-19.635-12.112-44.37-12.112-63.877,0
			c-6.502-27.412-33.915-44.37-61.327-37.995C26.647,515.34,10.328,535.74,10.2,559.2c0,5.609,4.59,10.2,10.2,10.2
			s10.2-4.591,10.2-10.2c0-16.958,13.643-30.601,30.6-30.601s30.6,13.643,30.6,30.601c0,1.785,0.51,3.442,1.53,4.973
			c-17.468,23.97-15.172,57.12,5.61,78.412c-3.825,1.402-7.268,3.697-9.945,6.758c-4.718,5.228-7.268,12.112-7.268,19.125V691.8
			c0,5.61,4.59,10.2,10.2,10.2c5.61,0,10.2-4.59,10.2-10.2v-23.332c0-2.04,0.638-3.953,2.04-5.482
			c0.893-1.021,2.295-1.658,3.698-1.785h70.38c1.402,0,2.677,0.638,3.697,1.785c1.275,1.529,2.04,3.442,2.04,5.482V691.8
			c0,5.61,4.59,10.2,10.2,10.2c5.61,0,10.2-4.59,10.2-10.2v-23.332c0-7.013-2.55-13.897-7.267-19.125
			c-2.805-3.061-6.248-5.355-9.945-6.758c20.783-21.292,23.078-54.315,5.61-78.412c0.893-1.53,1.403-3.188,1.403-4.973
			c0-16.958,13.643-30.601,30.6-30.601s30.6,13.643,30.6,30.601c0,1.785,0.51,3.442,1.53,4.973
			c-17.468,23.97-15.172,57.12,5.61,78.412c-3.825,1.402-7.268,3.697-9.945,6.758c-4.718,5.228-7.268,12.112-7.268,19.125V691.8
			c0,5.61,4.59,10.2,10.2,10.2c5.61,0,10.2-4.59,10.2-10.2v-23.332c0-2.04,0.638-3.953,2.04-5.482
			c0.893-1.021,2.295-1.658,3.697-1.785h70.38c1.403,0,2.678,0.638,3.698,1.785c1.274,1.529,2.04,3.442,2.04,5.482V691.8
			c0,5.61,4.59,10.2,10.199,10.2c5.61,0,10.2-4.59,10.2-10.2v-23.332c0-7.013-2.55-13.897-7.268-19.125
			c-2.805-3.061-6.247-5.355-9.944-6.758c20.782-21.292,23.077-54.315,5.609-78.412c0.893-1.53,1.402-3.188,1.402-4.973
			c0-16.958,13.643-30.601,30.601-30.601c16.957,0,30.6,13.643,30.6,30.601c0,1.785,0.51,3.442,1.53,4.973
			c-17.468,23.97-15.173,57.12,5.61,78.412c-3.825,1.402-7.268,3.697-9.945,6.758c-4.718,5.228-7.268,12.112-7.268,19.125V691.8
			c0,5.61,4.59,10.2,10.2,10.2c5.609,0,10.2-4.59,10.2-10.2v-23.332c0-2.04,0.637-3.953,2.039-5.482
			c0.893-1.021,2.296-1.658,3.698-1.785h70.38c1.402,0,2.678,0.638,3.697,1.785c1.275,1.529,2.04,3.442,2.04,5.482V691.8
			c0,5.61,4.59,10.2,10.2,10.2c5.609,0,10.2-4.59,10.2-10.2v-23.332c0-7.013-2.551-13.897-7.268-19.125
			c-2.806-3.061-6.248-5.355-9.945-6.758c20.782-21.292,23.077-54.315,5.61-78.412c0.893-1.53,1.402-3.188,1.402-4.973
			c0-16.958,13.643-30.601,30.6-30.601c16.958,0,30.601,13.643,30.601,30.601c0,5.609,4.59,10.2,10.199,10.2
			c5.61,0,10.2-4.591,10.2-10.2C601.8,531.022,578.978,508.2,550.8,508.2z M142.8,640.8c-22.567,0-40.8-18.232-40.8-40.8
			s18.232-40.8,40.8-40.8c22.568,0,40.8,18.232,40.8,40.8S165.368,640.8,142.8,640.8z M306,640.8c-22.567,0-40.8-18.232-40.8-40.8
			s18.232-40.8,40.8-40.8s40.8,18.232,40.8,40.8S328.567,640.8,306,640.8z M469.2,640.8c-22.567,0-40.8-18.232-40.8-40.8
			s18.232-40.8,40.8-40.8S510,577.433,510,600S491.768,640.8,469.2,640.8z"/>
	</g>
</g>
<g>
	<g>
		<path d="M142.8,436.8c-28.177,0-51,22.822-51,51c0,5.61,4.59,10.2,10.2,10.2s10.2-4.59,10.2-10.2c0-16.957,13.642-30.6,30.6-30.6
			s30.6,13.643,30.6,30.6c0,5.61,4.59,10.2,10.2,10.2s10.2-4.59,10.2-10.2C193.8,459.622,170.978,436.8,142.8,436.8z"/>
	</g>
</g>
<g>
	<g>
		<path d="M306,436.8c-28.178,0-51,22.822-51,51c0,5.61,4.59,10.2,10.2,10.2c5.61,0,10.2-4.59,10.2-10.2
			c0-16.957,13.643-30.6,30.6-30.6c16.957,0,30.6,13.643,30.6,30.6c0,5.61,4.591,10.2,10.2,10.2c5.61,0,10.2-4.59,10.2-10.2
			C357,459.622,334.178,436.8,306,436.8z"/>
	</g>
</g>
<g>
	<g>
		<path d="M469.2,436.8c-28.178,0-51,22.822-51,51c0,5.61,4.59,10.2,10.2,10.2c5.609,0,10.199-4.59,10.199-10.2
			c0-16.957,13.643-30.6,30.601-30.6c16.957,0,30.6,13.643,30.6,30.6c0,5.61,4.59,10.2,10.2,10.2s10.2-4.59,10.2-10.2
			C520.2,459.622,497.378,436.8,469.2,436.8z"/>
	</g>
</g>
<g>
	<g>
		<path d="M601.8,141h-6.63c-0.383-0.765-0.893-1.53-1.402-2.167L565.207,110.4H601.8c5.61,0,10.2-4.59,10.2-10.2
			c0-5.61-4.59-10.2-10.2-10.2H10.2C4.59,90,0,94.59,0,100.2c0,5.61,4.59,10.2,10.2,10.2h16.192l30.6,30.6H10.2
			C4.59,141,0,145.59,0,151.2c0,5.61,4.59,10.2,10.2,10.2h10.2v35.7c-14.917,15.938-14.535,40.927,1.02,56.482l19.89,19.89
			c3.953,3.952,10.455,3.952,14.407,0L98.94,230.25c3.953-3.953,3.953-10.455,0-14.407l-19.89-20.018
			c-9.945-10.073-24.607-14.153-38.25-10.71V161.4h255v24.607c-7.012,1.658-13.515,5.1-18.615,10.2
			c-7.65,7.65-11.857,17.978-11.985,28.815V253.2c0,5.61,4.59,10.2,10.2,10.2h61.2c5.61,0,10.2-4.59,10.2-10.2v-28.178
			c0-10.837-4.335-21.165-11.984-28.815c-5.101-5.1-11.603-8.542-18.615-10.2V161.4h255v23.715
			c-13.771-3.443-28.306,0.637-38.378,10.71l-19.89,19.89c-3.952,3.953-3.952,10.455,0,14.408l43.223,43.222
			c3.952,3.953,10.455,3.953,14.407,0l19.89-19.89c15.556-15.428,16.065-40.417,1.021-56.482V161.4h10.2
			c5.609,0,10.199-4.59,10.199-10.2C611.872,145.59,607.41,141,601.8,141z M50.235,204.368c5.355,0,10.583,2.167,14.408,5.992
			l12.623,12.623L48.45,251.797l-12.623-12.623c-7.905-7.905-7.905-20.91,0-28.815C39.652,206.407,44.88,204.368,50.235,204.368z
			 M55.208,110.4h52.785L81.6,136.792L55.208,110.4z M106.208,141l26.393-26.393L158.993,141H106.208z M157.208,110.4h52.785
			L183.6,136.792L157.208,110.4z M208.208,141l26.393-26.393L260.993,141H208.208z M285.6,136.792L259.208,110.4h52.785
			L285.6,136.792z M320.407,210.615c3.825,3.825,5.993,9.052,5.993,14.407V243h-40.8v-17.978c0-11.22,9.18-20.4,20.4-20.4
			C311.355,204.623,316.582,206.79,320.407,210.615z M310.207,141l26.393-26.393L362.992,141H310.207z M361.207,110.4h52.785
			L387.6,136.792L361.207,110.4z M412.207,141l26.393-26.393L464.992,141H412.207z M463.207,110.4h52.785L489.6,136.792
			L463.207,110.4z M514.207,141l26.393-26.393L566.992,141H514.207z M582.165,224.768c0,5.355-2.168,10.583-5.992,14.407
			l-12.623,12.623l-28.814-28.815l12.622-12.623c7.905-7.905,20.91-7.905,28.815,0C579.997,214.058,582.165,219.285,582.165,224.768
			L582.165,224.768z"/>
	</g>
</g>
<g>
	<g>
		<path d="M601.8,396H10.2C4.59,396,0,400.59,0,406.2c0,5.609,4.59,10.2,10.2,10.2h591.6c5.61,0,10.2-4.591,10.2-10.2
			C612,400.59,607.41,396,601.8,396z"/>
	</g>
</g>
</svg>
