<?xml version="1.0" encoding="utf-8"?>
<!-- Generator: Adobe Illustrator 16.0.0, SVG Export Plug-In . SVG Version: 6.00 Build 0)  -->
<!DOCTYPE svg PUBLIC "-//W3C//DTD SVG 1.1//EN" "http://www.w3.org/Graphics/SVG/1.1/DTD/svg11.dtd">
<svg version="1.1" id="Capa_1" xmlns="http://www.w3.org/2000/svg" xmlns:xlink="http://www.w3.org/1999/xlink" x="0px" y="0px"
	 width="612px" height="792px" viewBox="0 0 612 792" enable-background="new 0 0 612 792" xml:space="preserve">
<g>
	<g>
		<path d="M547.867,205.132l-51-51c-3.442-3.442-8.797-3.952-12.75-1.275l-56.609,37.103l-61.073-25.5L357,98.797
			c-0.765-5.1-5.1-8.797-10.2-8.797h-81.6c-5.1,0-9.435,3.697-10.073,8.797l-9.435,65.663l-61.072,25.5l-56.738-37.103
			c-4.08-2.677-9.435-2.04-12.75,1.275l-51,51c-3.442,3.443-3.952,8.798-1.275,12.877l37.74,57.375l-6.375,14.663l18.742,8.16
			l8.542-19.635c1.403-3.188,1.02-6.757-0.892-9.69l-36.21-55.208l39.27-39.27l54.315,35.573c2.805,1.785,6.375,2.167,9.563,0.893
			l71.4-29.835c3.315-1.403,5.61-4.463,6.12-7.905l8.925-62.603h63.877l8.925,62.603c0.51,3.57,2.806,6.63,6.12,7.905l71.4,29.835
			c3.188,1.275,6.63,1.02,9.563-0.893l54.314-35.573l39.525,39.525l-26.521,44.88c-1.529,2.677-1.912,5.865-0.765,8.797
			l11.348,29.835l19.125-7.268l-9.563-25.245l28.05-47.558C551.82,213.547,551.183,208.447,547.867,205.132z"/>
	</g>
</g>
<g>
	<g>
		<path d="M415.268,480.532l-30.6-30.6c-1.913-1.913-4.463-2.933-7.268-2.933H234.6c-2.678,0-5.355,1.02-7.268,2.933l-30.6,30.6
			c-1.913,1.913-2.933,4.463-2.933,7.268v204c0,5.61,4.59,10.2,10.2,10.2h204c5.61,0,10.2-4.59,10.2-10.2v-204
			C418.2,485.122,417.18,482.445,415.268,480.532z M340.808,467.4h32.385L336.6,503.992L320.407,487.8L340.808,467.4z
			 M322.192,518.4l-13.133,13.132c-1.912,1.913-2.932,4.463-2.932,7.268c0-2.678-1.148-5.228-2.933-7.14l-13.387-13.26L306,502.207
			L322.192,518.4z M311.992,467.4L306,473.393l-5.993-5.992H311.992z M271.192,467.4l20.4,20.399L275.4,503.992L238.808,467.4
			H271.192z M266.475,681.6H214.2V492.008l10.2-10.2l43.732,43.732l16.83,16.83L266.475,681.6z M287.002,681.6l18.87-141.397
			c0-0.382,0.127-0.893,0.127-1.274c0,0.638,0.128,1.274,0.255,1.912l28.05,140.76H287.002z M397.8,681.6h-42.585l-27.922-139.484
			l16.574-16.575l43.732-43.732l10.2,10.2V681.6z"/>
	</g>
</g>
<g>
	<g>
		<path d="M377.4,222.6h-91.8c-33.788,0-61.2,27.413-61.2,61.2V345c0,45.007,36.593,81.6,81.6,81.6c45.008,0,81.6-36.592,81.6-81.6
			V232.8C387.6,227.19,383.01,222.6,377.4,222.6z M367.2,345c0,33.788-27.413,61.2-61.2,61.2c-33.788,0-61.2-27.413-61.2-61.2v-40.8
			H326.4c15.045,0,29.58-5.61,40.8-15.683V345z M326.4,283.8H244.8c0-22.567,18.233-40.8,40.8-40.8h81.6
			C367.2,265.567,348.968,283.8,326.4,283.8z"/>
	</g>
</g>
<g>
	<g>
		<path d="M609.067,521.332l-30.6-30.6c-1.913-1.912-4.463-2.933-7.268-2.933H489.6c-2.677,0-5.354,1.021-7.268,2.933l-30.6,30.6
			c-1.912,1.913-2.933,4.463-2.933,7.268v163.2c0,5.61,4.59,10.2,10.2,10.2h142.8c5.61,0,10.2-4.59,10.2-10.2V528.6
			C612,525.923,610.98,523.245,609.067,521.332z M591.6,681.6h-51v-153H520.2v153h-51V532.808l20.399-20.4l23.333,23.333
			l7.268-7.268l7.268-7.268L514.207,508.2h33.15l-13.77,13.005l7.012,7.395l7.013,7.396l24.353-22.95L591.6,532.68V681.6z"/>
	</g>
</g>
<g>
	<g>
		<path d="M540.6,314.4h-20.018c-28.05,0-50.872,22.695-51,50.873l-0.127,51.128c-0.128,33.787,27.157,61.199,60.945,61.327
			c0.127,0,0.127,0,0.255,0c33.787,0,61.072-27.412,61.072-61.072V365.4C591.6,337.223,568.777,314.4,540.6,314.4z M489.982,365.272
			c0-16.703,13.515-30.345,30.218-30.473C520.2,351.63,506.685,365.272,489.982,365.272L489.982,365.272z M571.2,416.527
			c0,22.44-18.232,40.673-40.673,40.673c-22.439,0-40.672-18.232-40.672-40.673V416.4l0.127-30.601
			c15.938-0.127,30.982-7.65,40.545-20.4c9.69,12.877,24.735,20.4,40.8,20.4L571.2,416.527L571.2,416.527z M540.6,334.8
			c16.958,0,30.601,13.643,30.601,30.6C554.242,365.4,540.6,351.757,540.6,334.8z"/>
	</g>
</g>
<g>
	<g>
		<path d="M160.268,521.332l-30.6-30.6c-1.913-1.912-4.462-2.933-7.268-2.933H40.8c-2.677,0-5.355,1.021-7.267,2.933l-30.6,30.6
			C1.02,523.245,0,525.923,0,528.6v163.2c0,5.61,4.59,10.2,10.2,10.2H153c5.61,0,10.2-4.59,10.2-10.2V528.6
			C163.2,525.923,162.18,523.245,160.268,521.332z M142.8,681.6h-51v-153H71.4v153h-51V532.808l20.4-20.4l23.333,23.333L71.4,528.6
			l7.268-7.268L65.408,508.2h33.15l-13.77,13.005L91.8,528.6l7.013,7.396l24.353-22.95L142.8,532.68V681.6z"/>
	</g>
</g>
<g>
	<g>
		<path d="M91.8,314.4H71.783c-28.05,0-50.873,22.695-51,50.873L20.655,416.4C20.527,450.188,47.813,477.6,81.6,477.728
			c0.127,0,0.127,0,0.255,0c33.788,0,61.073-27.412,61.073-61.072V365.4C142.8,337.223,119.978,314.4,91.8,314.4z M91.8,334.8
			c12.878,0,24.48,8.16,28.688,20.4H102c-12.877,0-24.48-8.16-28.688-20.4H91.8z M51,343.087V345c0,2.678-1.02,5.355-3.06,7.268
			c-1.275,1.275-2.933,2.167-4.845,2.55C44.88,350.228,47.558,346.275,51,343.087z M122.4,416.527
			c0,22.44-18.232,40.673-40.672,40.673s-40.672-18.232-40.672-40.673V416.4l0.127-40.928c8.032,0,15.683-3.188,21.292-8.925
			c1.657-1.657,3.06-3.442,4.208-5.355C76.118,370.5,88.868,375.6,102,375.6h20.4V416.527z"/>
	</g>
</g>
</svg>
