<?xml version="1.0" encoding="utf-8"?>
<!-- Generator: Adobe Illustrator 16.0.0, SVG Export Plug-In . SVG Version: 6.00 Build 0)  -->
<!DOCTYPE svg PUBLIC "-//W3C//DTD SVG 1.1//EN" "http://www.w3.org/Graphics/SVG/1.1/DTD/svg11.dtd">
<svg version="1.1" id="Capa_1" xmlns="http://www.w3.org/2000/svg" xmlns:xlink="http://www.w3.org/1999/xlink" x="0px" y="0px"
	 width="612px" height="792px" viewBox="0 0 612 792" enable-background="new 0 0 612 792" xml:space="preserve">
<g>
	<g>
		<path d="M510,142.02V100.2c0-5.61-4.59-10.2-10.2-10.2c-0.893,0-1.657,0.127-2.422,0.255L335.325,130.8H316.2
			c-33.788,0.128-61.073,27.668-60.945,61.455c0.127,27.923,19.125,52.147,46.155,59.033l4.462,13.515
			c-3.315-0.893-6.757-1.403-10.073-1.403H51c-28.178,0-51,22.823-51,51v377.4c0,5.61,4.59,10.2,10.2,10.2H153
			c16.958,0,30.6-13.643,30.6-30.6c0-16.958-13.643-30.601-30.6-30.601h-10.2v-255H306c19.763,0,36.72-14.28,40.035-33.787
			c0.638,0.255,1.147,0.765,1.657,1.02c18.87,8.797,41.183,0.51,49.98-18.36c4.08-8.67,4.59-18.615,1.529-27.795l-13.77-41.31
			L497.25,293.49c5.482,1.402,10.965-1.913,12.367-7.395c0.255-0.765,0.255-1.658,0.255-2.423v-41.82
			c23.716-4.845,40.801-25.755,40.801-49.98C550.8,167.775,533.715,146.865,510,142.02z M275.4,192c0-22.567,18.232-40.8,40.8-40.8
			h10.2v81.6h-10.2C293.632,232.8,275.4,214.567,275.4,192z M132.6,324.6c-5.61,0-10.2,4.59-10.2,10.2V651
			c0,5.61,4.59,10.2,10.2,10.2H153c5.61,0,10.2,4.59,10.2,10.2c0,5.609-4.59,10.199-10.2,10.199H81.6V508.2
			c0-5.61-4.59-10.2-10.2-10.2s-10.2,4.59-10.2,10.2V681.6H20.4V314.4c0-16.958,13.643-30.6,30.6-30.6h244.8
			c11.22,0,20.4,9.18,20.4,20.4c0,11.22-9.181,20.4-20.4,20.4H132.6z M317.093,362.212c-3.315,2.167-7.141,3.188-11.093,3.188H142.8
			V345h153c10.2,0,19.891-3.825,27.413-10.837C329.205,343.598,326.527,356.092,317.093,362.212z M370.005,334.928
			c-8.798,3.57-18.87-0.765-22.313-9.563c-0.127-0.383-0.255-0.638-0.383-1.02L323.595,253.2h11.857l26.775,6.63l17.85,53.55
			C382.755,322.178,378.42,331.485,370.005,334.928z M489.6,270.795l-142.8-35.7v-86.189l142.8-35.7V270.795z M528.615,202.2
			c-3.061,8.67-9.945,15.555-18.615,18.615v-57.63C525.938,168.795,534.353,186.263,528.615,202.2z"/>
	</g>
</g>
<g>
	<g>
		<path d="M601.8,181.8H581.4c-5.61,0-10.2,4.59-10.2,10.2s4.59,10.2,10.2,10.2H601.8c5.61,0,10.2-4.59,10.2-10.2
			S607.41,181.8,601.8,181.8z"/>
	</g>
</g>
<g>
	<g>
		<path d="M579.36,112.695c-3.953-4.08-10.328-4.208-14.408-0.255c-0.127,0.127-0.127,0.127-0.255,0.255l-14.407,14.408
			c-4.08,3.953-4.208,10.328-0.255,14.407c3.952,4.08,10.327,4.208,14.407,0.255c0.128-0.127,0.128-0.127,0.255-0.255l14.408-14.407
			C583.185,123.15,583.313,116.775,579.36,112.695z"/>
	</g>
</g>
<g>
	<g>
		<path d="M579.105,256.897l-14.408-14.407c-3.952-4.08-10.327-4.208-14.407-0.255s-4.207,10.328-0.255,14.408
			c0.127,0.127,0.127,0.127,0.255,0.255l14.407,14.408c4.08,3.952,10.455,3.825,14.408-0.255
			C582.93,267.098,582.93,260.85,579.105,256.897z"/>
	</g>
</g>
<g>
	<g>
		<path d="M153,90H81.6C36.592,89.873,0.127,126.337,0,171.345c0,7.905,1.147,15.683,3.315,23.205l-0.382,0.383l0.637,0.637
			c13.26,43.095,58.905,67.193,102,53.933c34.298-10.455,57.63-42.075,57.63-77.902v-71.4C163.2,94.59,158.61,90,153,90z
			 M142.8,171.6c0,33.788-27.412,61.2-61.2,61.2c-22.695,0-43.605-12.622-54.188-32.768C59.16,170.962,99.96,153.877,142.8,151.71
			V171.6z M142.8,131.31c-44.752,2.04-87.592,18.615-122.017,47.175c-3.953-33.405,20.017-63.75,53.422-67.702
			c2.422-0.255,4.845-0.383,7.395-0.383h61.2V131.31z"/>
	</g>
</g>
</svg>
