<?xml version="1.0" encoding="utf-8"?>
<!-- Generator: Adobe Illustrator 16.0.0, SVG Export Plug-In . SVG Version: 6.00 Build 0)  -->
<!DOCTYPE svg PUBLIC "-//W3C//DTD SVG 1.1//EN" "http://www.w3.org/Graphics/SVG/1.1/DTD/svg11.dtd">
<svg version="1.1" id="Layer_1" xmlns="http://www.w3.org/2000/svg" xmlns:xlink="http://www.w3.org/1999/xlink" x="0px" y="0px"
	 width="612px" height="792px" viewBox="0 0 612 792" enable-background="new 0 0 612 792" xml:space="preserve">
<g>
	<g>
		<g>
			<path d="M139.057,410.807c-10.118,0-19.495,5.306-24.677,13.942L99.573,449.55l-0.74-1.604V417.47l32.081-12.833
				c10.488-4.194,17.274-14.189,17.274-25.417c0-8.884-4.319-17.151-11.475-22.333s-16.411-6.54-24.801-3.702l-3.455,1.234
				l3.949-8.02c3.948-8.02,6.046-16.904,6.046-25.788c0-15.547-12.585-28.132-28.132-28.132c-10.735,0-20.359,5.923-25.171,15.547
				l-24.554,49.108L19.989,458.311l-0.247,130.174l7.773,39.483H0v69.097h148.064v-69.097h-29.613v-66.136l18.138-27.145
				l26.898-70.948c2.961-7.773,4.442-15.917,4.442-24.184C167.807,423.762,154.851,410.807,139.057,410.807z M118.205,371.816
				c2.344-0.74,4.935-0.37,6.91,0.987c1.974,1.357,3.208,3.702,3.208,6.293c0,3.208-1.851,5.922-4.813,7.156l-24.801,9.871v-17.768
				L118.205,371.816z M128.323,647.71v29.612H19.742V647.71H128.323z M144.98,456.83l-25.418,67.862L98.709,555.91v72.058H47.627
				l-8.144-40.471V461.148l19.249-96.489l23.937-47.874c1.48-2.838,4.318-4.689,7.526-4.689c4.689,0,8.391,3.825,8.391,8.391
				c0,5.922-1.357,11.722-4.072,17.027l-15.547,31.463v83.657l19.001,37.88l33.314-55.647c1.604-2.715,4.565-4.442,7.773-4.442
				c4.936,0,9.007,4.072,9.007,9.008C148.064,445.479,147.078,451.277,144.98,456.83z"/>
			<path d="M584.608,627.968l7.526-37.51l0.123-130.297L572.27,359.478l-25.418-51.576c-4.813-9.624-14.437-15.546-25.171-15.546
				c-15.547,0-28.132,12.585-28.132,28.132c0,8.884,2.098,17.891,6.046,25.788l3.948,7.897l-3.455-1.234
				c-8.391-2.838-17.645-1.481-24.801,3.702c-7.156,5.182-11.475,13.449-11.475,22.333c0,11.352,6.786,21.346,17.273,25.418
				l32.081,12.832v30.477l-0.74,1.604l-14.807-24.801c-5.183-8.637-14.56-13.942-24.678-13.942
				c-15.917,0-28.749,12.956-28.749,28.749c0,8.268,1.48,16.411,4.442,24.185l25.911,68.973l19.125,29.12v66.382h-29.613v69.097
				h148.064v-69.097H584.608z M488.489,386.376c-2.961-1.234-4.812-3.949-4.812-7.157c0-2.468,1.11-4.812,3.208-6.292
				c2.098-1.481,4.565-1.851,6.909-0.987l19.495,6.54v17.768L488.489,386.376z M492.562,524.692l-25.418-67.862
				c-2.098-5.553-3.085-11.352-3.085-17.274c0-4.936,4.072-9.007,9.008-9.007c3.208,0,6.169,1.727,7.773,4.441l33.314,55.647
				l19.001-37.88v-83.656l-15.67-31.464c-2.591-5.306-4.071-11.104-4.071-17.027c0-4.688,3.824-8.39,8.39-8.39
				c3.208,0,6.046,1.728,7.527,4.688l23.937,47.875l19.248,96.488V587.62l-8.143,40.471H513.29v-72.058L492.562,524.692z
				 M592.258,677.322h-108.58V647.71h108.58V677.322z"/>
			<path d="M430.744,272.613h23.32v-59.226h-23.32c-3.208-13.326-8.39-26.035-15.547-37.633l16.411-16.534l-41.828-41.828
				l-16.534,16.41c-11.722-7.156-24.308-12.462-37.633-15.546v-23.32h-59.226v23.32c-13.326,3.208-26.035,8.39-37.633,15.546
				l-16.534-16.41l-41.828,41.828l16.41,16.534c-7.156,11.722-12.462,24.308-15.546,37.633h-23.32v59.226h23.32
				c3.208,13.326,8.39,26.035,15.546,37.633l-16.41,16.534l41.828,41.828l15.177-15.176c-0.124,0.987-0.247,1.974-0.247,2.961
				c0,8.761,4.689,16.411,11.599,20.853c-0.987,2.714-1.728,5.676-1.728,8.761c0,13.572,11.105,24.677,24.677,24.677h69.097
				c13.573,0,24.678-11.104,24.678-24.677c0-3.085-0.617-6.046-1.728-8.761c6.91-4.318,11.599-12.092,11.599-20.853
				c0-0.864-0.124-1.728-0.247-2.714l14.807,14.807l41.828-41.829l-16.41-16.534C422.354,298.647,427.66,285.938,430.744,272.613z
				 M340.672,391.064h-69.097c-2.715,0-4.936-2.221-4.936-4.936c0-2.714,2.221-4.936,4.936-4.936h69.097
				c2.715,0,4.936,2.221,4.936,4.936C345.607,388.844,343.387,391.064,340.672,391.064z M350.543,361.452h-9.871h-69.097h-9.871
				c-2.714,0-4.936-2.221-4.936-4.936s2.221-4.936,4.936-4.936h88.839c2.714,0,4.936,2.221,4.936,4.936
				S353.257,361.452,350.543,361.452z M315.994,270.762c11.476-4.072,19.742-14.93,19.742-27.762
				c0-16.287-13.326-29.613-29.613-29.613c-16.287,0-29.612,13.326-29.612,29.613c0,12.832,8.267,23.69,19.742,27.762v61.077
				h-19.742v-26.158l-4.936-2.838c-21.346-12.339-34.548-35.289-34.548-59.719c0-38.127,30.97-69.097,69.096-69.097
				c38.127,0,69.097,30.97,69.097,69.097c0,24.554-13.202,47.38-34.548,59.719l-4.936,2.838v26.158h-19.742V270.762z
				 M306.123,252.871c-5.429,0-9.871-4.442-9.871-9.871s4.442-9.871,9.871-9.871c5.43,0,9.871,4.442,9.871,9.871
				S311.553,252.871,306.123,252.871z M412.977,261.138c-2.715,16.287-9.007,31.34-18.508,44.667l-4.813,6.786l14.066,14.189
				l-13.942,13.943l-14.189-14.189l-6.787,4.812c-1.851,1.234-3.824,2.591-5.922,3.825c-2.222-1.357-4.689-2.344-7.403-2.961
				v-15.547c24.431-16.411,39.483-44.173,39.483-73.786c0-48.984-39.854-88.838-88.839-88.838
				c-48.984,0-88.838,39.854-88.838,88.838c0,29.613,15.053,57.375,39.484,73.786v15.547c-2.714,0.494-5.306,1.604-7.526,3.084
				c-2.098-1.357-4.195-2.591-6.046-3.948l-6.786-4.812l-14.189,14.189l-13.943-13.943l14.066-14.189l-4.813-6.786
				c-9.5-13.326-15.793-28.379-18.508-44.667l-1.357-8.267h-19.989v-19.742h19.989l1.357-8.267
				c2.714-16.287,9.007-31.34,18.508-44.667l4.813-6.786l-14.066-14.189l13.943-13.943l14.189,14.066l6.786-4.813
				c13.326-9.5,28.379-15.793,44.667-18.508l8.267-1.357v-19.989h19.742v19.989l8.267,1.357
				c16.287,2.714,31.341,9.007,44.666,18.508l6.787,4.813l14.189-14.066l13.942,13.943l-14.066,14.189l4.813,6.786
				c9.501,13.326,15.793,28.379,18.508,44.667l1.357,8.267h19.988v19.742h-19.988L412.977,261.138z"/>
			<rect x="296.129" y="430.549" width="19.742" height="19.741"/>
			<rect x="296.129" y="470.032" width="19.742" height="19.742"/>
			<rect x="296.129" y="509.517" width="19.742" height="19.741"/>
			<rect x="296.129" y="549" width="19.742" height="19.742"/>
		</g>
	</g>
</g>
</svg>
