<?xml version="1.0" encoding="utf-8"?>
<!-- Generator: Adobe Illustrator 16.0.0, SVG Export Plug-In . SVG Version: 6.00 Build 0)  -->
<!DOCTYPE svg PUBLIC "-//W3C//DTD SVG 1.1//EN" "http://www.w3.org/Graphics/SVG/1.1/DTD/svg11.dtd">
<svg version="1.1" id="Capa_1" xmlns="http://www.w3.org/2000/svg" xmlns:xlink="http://www.w3.org/1999/xlink" x="0px" y="0px"
	 width="612px" height="792px" viewBox="0 0 612 792" enable-background="new 0 0 612 792" xml:space="preserve">
<g>
	<g>
		<rect x="204" y="141" width="204" height="20.4"/>
	</g>
</g>
<g>
	<g>
		<path d="M504.9,472.5c0-19.635-16.065-35.7-35.7-35.7h-20.4V294H428.4v142.8h-25.5c-19.636,0-35.7,16.065-35.7,35.7
			c0,9.945,4.207,18.997,10.837,25.5c-6.63,6.503-10.837,15.555-10.837,25.5c0,6.885,2.04,13.26,5.482,18.742
			C360.442,547.98,351.9,560.22,351.9,574.5c0,5.482,1.402,10.582,3.569,15.3H275.4c0-31.237-15.683-58.777-39.525-75.353
			c23.078-8.797,39.525-31.109,39.525-57.247c0-5.61-4.59-10.2-10.2-10.2h-81.6V345h-20.4v102c-16.83,0-30.6,13.77-30.6,30.6V702
			H153V477.6c0-5.609,4.59-10.199,10.2-10.199h90.525c-4.59,17.595-20.528,30.6-39.525,30.6h-30.6c-5.61,0-10.2,4.59-10.2,10.2
			c0,5.609,4.59,10.2,10.2,10.2c39.397,0,71.4,32.002,71.4,71.399V600c0,5.61,4.59,10.2,10.2,10.2h59.67
			c-2.168,4.718-3.57,9.817-3.57,15.3c0,19.635,16.065,35.7,35.7,35.7V702h20.4v-40.8h40.8h5.1c19.635,0,35.7-16.065,35.7-35.7
			c0-5.61-1.402-10.71-3.697-15.428C474.3,609.308,489.6,593.753,489.6,574.5c0-6.885-2.04-13.26-5.482-18.742
			c12.24-5.738,20.783-17.978,20.783-32.258c0-9.945-4.208-18.997-10.838-25.5C500.692,491.497,504.9,482.445,504.9,472.5z
			 M423.3,640.8h-5.1h-51H357c-8.415,0-15.3-6.885-15.3-15.3s6.885-15.3,15.3-15.3h30.6h35.7c8.415,0,15.3,6.885,15.3,15.3
			S431.715,640.8,423.3,640.8z M453.9,589.8H423.3h-35.7c-8.415,0-15.3-6.885-15.3-15.3s6.885-15.3,15.3-15.3H402.9h51
			c8.415,0,15.3,6.885,15.3,15.3S462.315,589.8,453.9,589.8z M469.2,538.8h-15.3h-51c-8.415,0-15.301-6.885-15.301-15.3
			s6.886-15.3,15.301-15.3h66.3c8.415,0,15.3,6.885,15.3,15.3S477.615,538.8,469.2,538.8z M469.2,487.8h-66.3
			c-8.415,0-15.301-6.885-15.301-15.3s6.886-15.3,15.301-15.3h66.3c8.415,0,15.3,6.885,15.3,15.3S477.615,487.8,469.2,487.8z"/>
	</g>
</g>
<g>
	<g>
		<path d="M153,219.795c-0.255-2.933-1.658-5.61-3.953-7.395l-10.583-8.032c-2.677-12.877-13.897-22.568-27.412-22.568
			c-15.173,0-27.668,12.368-27.795,27.667c-8.16-1.402-15.938-4.59-22.95-9.307l-3.57-2.423c-3.06-2.167-7.14-2.295-10.455-0.51
			c-3.315,1.785-5.355,5.228-5.355,9.052v8.415c0,12.24,3.697,23.97,10.582,33.915l-7.65,7.778
			c-2.932,2.932-3.697,7.267-2.167,11.092c1.53,3.825,5.355,6.248,9.435,6.248h49.47c19.762,0,35.955-15.045,38.25-34.298
			l11.475-11.602C152.107,225.66,153.127,222.728,153,219.795z M121.38,227.7c-1.913,1.912-2.933,4.462-2.933,7.14
			c0,10.073-8.16,18.36-18.105,18.36H74.46c1.658-3.698,0.893-8.16-2.04-11.22c-4.717-4.845-8.16-10.837-9.945-17.467
			c9.69,4.08,20.145,6.247,30.855,6.247c5.61,0,10.2-4.59,10.2-10.2v-10.71c0-4.208,3.315-7.65,7.395-7.65
			c4.08,0,7.395,3.442,7.395,7.65c0,3.188,1.53,6.248,4.08,8.16l4.845,3.698L121.38,227.7z"/>
	</g>
</g>
<g>
	<g>
		<path d="M336.6,263.4V243H306c-5.61,0-10.2,4.59-10.2,10.2v30.6h-20.4v20.4h20.4V345h20.4v-40.8H336.6v-20.4H316.2v-20.4H336.6z"
			/>
	</g>
</g>
<g>
	<g>
		<path d="M367.2,202.2H244.8c-16.83,0-30.6,13.77-30.6,30.6v122.4c0,16.83,13.77,30.6,30.6,30.6h122.4
			c16.83,0,30.6-13.77,30.6-30.6V232.8C397.8,215.97,384.03,202.2,367.2,202.2z M377.4,355.2c0,5.61-4.591,10.2-10.2,10.2H244.8
			c-5.61,0-10.2-4.59-10.2-10.2V232.8c0-5.61,4.59-10.2,10.2-10.2h122.4c5.609,0,10.2,4.59,10.2,10.2V355.2z"/>
	</g>
</g>
<g>
	<g>
		<path d="M153,141H30.6C13.77,141,0,154.77,0,171.6V294c0,16.83,13.77,30.6,30.6,30.6H153c16.83,0,30.6-13.77,30.6-30.6V171.6
			C183.6,154.77,169.83,141,153,141z M163.2,294c0,5.61-4.59,10.2-10.2,10.2H30.6c-5.61,0-10.2-4.59-10.2-10.2V171.6
			c0-5.61,4.59-10.2,10.2-10.2H153c5.61,0,10.2,4.59,10.2,10.2V294z"/>
	</g>
</g>
<g>
	<g>
		<path d="M581.4,90H459c-16.83,0-30.6,13.77-30.6,30.6V243c0,16.83,13.77,30.6,30.6,30.6h122.4c16.83,0,30.6-13.77,30.6-30.6V120.6
			C612,103.77,598.23,90,581.4,90z M591.6,243c0,5.61-4.59,10.2-10.199,10.2H459c-5.61,0-10.2-4.59-10.2-10.2v-51h21.42
			c4.718,23.205,25.373,40.8,49.98,40.8s45.263-17.595,49.979-40.8h21.42V243z M489.6,181.8c0-16.83,13.771-30.6,30.601-30.6
			s30.6,13.77,30.6,30.6s-13.77,30.6-30.6,30.6S489.6,198.63,489.6,181.8z M591.6,171.6h-21.42
			c-4.717-23.205-25.372-40.8-49.979-40.8s-45.263,17.595-49.98,40.8H448.8v-51c0-5.61,4.59-10.2,10.2-10.2h122.4
			c5.609,0,10.199,4.59,10.199,10.2V171.6z"/>
	</g>
</g>
<g>
	<g>
		<rect x="295.8" y="508.2" width="20.4" height="20.399"/>
	</g>
</g>
</svg>
